<svg width="130" height="30" viewBox="0 0 130 30" fill="none" xmlns="http://www.w3.org/2000/svg">
    <path d="M104.635 15.857c.375-1.487 1.393-2.365 2.924-2.365s2.541.878 2.924 2.365h-5.848zm2.964-5.266c-4.08 0-6.901 2.773-6.901 6.63 0 3.856 2.753 6.628 7.412 6.628 2.2.014 4.338-.73 6.051-2.106l-1.802-2.197A6.86 6.86 0 0 1 108.177 21c-2.073 0-3.333-.948-3.638-2.775h9.825v-1.013c0-3.815-2.924-6.62-6.765-6.62zM122.894 20.6a3.393 3.393 0 0 1-3.485-3.297 3.39 3.39 0 0 1 3.485-3.466 3.311 3.311 0 0 1 3.367 3.256l-.001.127c0 1.962-1.429 3.38-3.366 3.38zm1.156-9.84a5.998 5.998 0 0 0-4.76 2.165v-1.763h-3.365V30h3.57v-8.384a5.964 5.964 0 0 0 4.555 2.063c3.367 0 5.95-2.874 5.95-6.493 0-3.654-2.585-6.426-5.95-6.426zM52.691 17.496a5.286 5.286 0 0 1-.315 1.83 4.25 4.25 0 0 1-.913 1.475c-.41.427-.904.768-1.45 1a4.753 4.753 0 0 1-1.906.371 4.863 4.863 0 0 1-1.906-.37 4.96 4.96 0 0 1-1.533-1.007 4.672 4.672 0 0 1-1.03-1.487 4.614 4.614 0 0 1 0-3.64 4.67 4.67 0 0 1 1.03-1.488 4.874 4.874 0 0 1 3.44-1.378 4.741 4.741 0 0 1 1.904.372c.547.233 1.04.573 1.453 1 .402.425.711.926.91 1.475.215.592.322 1.217.316 1.847zm.116-4.649a6.187 6.187 0 0 0-2.079-1.348 7.085 7.085 0 0 0-4.046-.337 6.13 6.13 0 0 0-1.391.453 5.658 5.658 0 0 0-1.233.777 4.176 4.176 0 0 0-.635.657V11.33h-1.977v18.634h1.966v-8.023c.188.24.401.46.636.656.375.311.789.572 1.232.776.444.205.91.358 1.39.453a7.236 7.236 0 0 0 4.048-.333 6.211 6.211 0 0 0 2.079-1.348 6.095 6.095 0 0 0 1.363-2.054 7.146 7.146 0 0 0 0-5.188 6.07 6.07 0 0 0-1.352-2.056zM61.582 10.99c-.66-.035-1.613.28-2.257.738-.499.359-.934.798-1.288 1.3v-.21c-.008-.422-.02-.854-.037-1.296v-.19h-1.96v.199c0 .16 0 .385.026.67.026.284.032.585.04.91.009.324.022.654.038.974.017.32.028.588.028.803v8.778h1.968v-6.65a5.36 5.36 0 0 1 .226-1.582c.137-.463.369-.893.68-1.264.314-.366.71-.655 1.156-.843.43-.224.91-.336 1.395-.326h.201v-.198c-.025-1.805-.025-1.805-.216-1.814zM73.044 17.496a5.27 5.27 0 0 1-.315 1.83 4.226 4.226 0 0 1-.911 1.475 4.443 4.443 0 0 1-1.453 1 5.09 5.09 0 0 1-3.811 0 4.405 4.405 0 0 1-1.45-1 4.23 4.23 0 0 1-.913-1.474 5.502 5.502 0 0 1 0-3.661c.2-.55.51-1.051.913-1.475.41-.427.903-.767 1.45-1.001a5.094 5.094 0 0 1 3.811 0 4.46 4.46 0 0 1 1.453 1c.402.425.713.927.911 1.476.213.587.319 1.206.315 1.83zm1.483-2.593A6.09 6.09 0 0 0 71.09 11.5a7.04 7.04 0 0 0-2.624-.48 7.145 7.145 0 0 0-2.636.48c-.78.301-1.489.76-2.081 1.348a6.227 6.227 0 0 0-1.35 2.056 7.184 7.184 0 0 0 0 5.188 6.25 6.25 0 0 0 1.35 2.054 6.06 6.06 0 0 0 2.081 1.348c.84.325 1.735.488 2.636.48a7.032 7.032 0 0 0 2.624-.48 6.094 6.094 0 0 0 3.443-3.402 7.176 7.176 0 0 0 0-5.188h-.006zM83.293 20.6a3.393 3.393 0 0 1-3.485-3.297 3.39 3.39 0 0 1 3.485-3.466 3.31 3.31 0 0 1 3.366 3.383c0 1.962-1.427 3.38-3.366 3.38zm1.156-9.84a6 6 0 0 0-4.76 2.165v-1.763h-3.365V30h3.57v-8.384a5.964 5.964 0 0 0 4.555 2.063c3.367 0 5.95-2.874 5.95-6.493 0-3.654-2.582-6.426-5.95-6.426zM95.53 13.803v-2.641h-3.401v12.112h3.57v-6.088c0-.914 1.19-2.131 3.06-2.131a1.91 1.91 0 0 1 .68.1V11.1h-.399c-1.812 0-3.104 1.758-3.51 2.704z" fill="#46454C"/>
    <path d="M18.934.088 0 7.191l18.862 8.312c.358.158.767.158 1.125 0l18.862-8.312L19.915.088a1.407 1.407 0 0 0-.98 0z" fill="url(#oz3ckd7pea)"/>
    <path d="M18.934.088 0 7.191l18.862 8.312c.358.158.767.158 1.125 0l18.862-8.312L19.915.088a1.407 1.407 0 0 0-.98 0z" fill="url(#iewmvnwsdb)"/>
    <path d="M5.66 17.06a1.03 1.03 0 0 0 .606.946l12.302 5.535c.547.245 1.171.245 1.717 0l12.303-5.537c.373-.167.612-.537.612-.944v-5.502l-12.93 5.687c-.538.24-1.155.24-1.694 0L5.662 11.548v5.512z" fill="url(#q33hev5ybc)"/>
    <path d="M5.66 17.06a1.03 1.03 0 0 0 .606.946l12.302 5.535c.547.245 1.171.245 1.717 0l12.303-5.537c.373-.167.612-.537.612-.944v-5.502l-12.93 5.687c-.538.24-1.155.24-1.694 0L5.662 11.548v5.512z" fill="url(#omol070qxd)"/>
    <path d="M20.294 25.212a2.086 2.086 0 0 1-1.718 0L5.662 19.403v2.948l12.903 5.808c.546.245 1.17.245 1.717 0l12.917-5.811v-2.95l-12.904 5.814z" fill="url(#2mr3b05nae)"/>
    <path d="M20.294 25.212a2.086 2.086 0 0 1-1.718 0L5.662 19.403v2.948l12.903 5.808c.546.245 1.17.245 1.717 0l12.917-5.811v-2.95l-12.904 5.814z" fill="url(#wctzc9khwf)"/>
    <defs>
        <linearGradient id="oz3ckd7pea" x1="0" y1="7.811" x2="38.849" y2="7.811" gradientUnits="userSpaceOnUse">
            <stop stop-color="#1486C8"/>
            <stop offset=".127" stop-color="#1486C8"/>
            <stop offset="1" stop-color="#0759A0"/>
        </linearGradient>
        <linearGradient id="iewmvnwsdb" x1="0" y1="7.831" x2="38.849" y2="7.831" gradientUnits="userSpaceOnUse">
            <stop stop-color="#1486C8"/>
            <stop offset=".127" stop-color="#1486C8"/>
            <stop offset="1" stop-color="#0759A0"/>
        </linearGradient>
        <linearGradient id="q33hev5ybc" x1="5.66" y1="17.636" x2="33.2" y2="17.636" gradientUnits="userSpaceOnUse">
            <stop stop-color="#1486C8"/>
            <stop offset=".127" stop-color="#1486C8"/>
            <stop offset="1" stop-color="#0759A0"/>
        </linearGradient>
        <linearGradient id="omol070qxd" x1="5.657" y1="17.667" x2="33.2" y2="17.667" gradientUnits="userSpaceOnUse">
            <stop stop-color="#1486C8"/>
            <stop offset=".127" stop-color="#1486C8"/>
            <stop offset="1" stop-color="#0759A0"/>
        </linearGradient>
        <linearGradient id="2mr3b05nae" x1="5.66" y1="23.87" x2="33.198" y2="23.87" gradientUnits="userSpaceOnUse">
            <stop stop-color="#1486C8"/>
            <stop offset=".127" stop-color="#1486C8"/>
            <stop offset="1" stop-color="#0759A0"/>
        </linearGradient>
        <linearGradient id="wctzc9khwf" x1="5.66" y1="23.901" x2="33.198" y2="23.901" gradientUnits="userSpaceOnUse">
            <stop stop-color="#1486C8"/>
            <stop offset=".127" stop-color="#1486C8"/>
            <stop offset="1" stop-color="#0759A0"/>
        </linearGradient>
    </defs>
</svg>
