<svg width="1227" height="19" viewBox="0 0 1227 19" fill="none" xmlns="http://www.w3.org/2000/svg">
<circle cx="9.5" cy="9.5" r="9.5" fill="white"/>
<rect width="10" height="5" transform="translate(29 7)" fill="white"/>
<rect width="10" height="5" transform="translate(49 7)" fill="white"/>
<rect width="10" height="5" transform="translate(69 7)" fill="white"/>
<rect width="10" height="5" transform="translate(89 7)" fill="white"/>
<rect width="10" height="5" transform="translate(109 7)" fill="white"/>
<rect width="10" height="5" transform="translate(129 7)" fill="white"/>
<rect width="10" height="5" transform="translate(149 7)" fill="white"/>
<rect width="10" height="5" transform="translate(169 7)" fill="white"/>
<rect width="10" height="5" transform="translate(189 7)" fill="white"/>
<rect width="10" height="5" transform="translate(209 7)" fill="white"/>
<rect width="10" height="5" transform="translate(229 7)" fill="white"/>
<circle cx="256.5" cy="9.5" r="9.5" fill="white"/>
<rect width="10" height="5" transform="translate(276 7)" fill="white"/>
<rect width="10" height="5" transform="translate(296 7)" fill="white"/>
<rect width="10" height="5" transform="translate(316 7)" fill="white"/>
<rect width="10" height="5" transform="translate(336 7)" fill="white"/>
<rect width="10" height="5" transform="translate(356 7)" fill="white"/>
<rect width="10" height="5" transform="translate(376 7)" fill="white"/>
<rect width="10" height="5" transform="translate(396 7)" fill="white"/>
<rect width="10" height="5" transform="translate(416 7)" fill="white"/>
<rect width="10" height="5" transform="translate(436 7)" fill="white"/>
<rect width="10" height="5" transform="translate(456 7)" fill="white"/>
<rect width="10" height="5" transform="translate(476 7)" fill="white"/>
<circle cx="503.5" cy="9.5" r="9.5" fill="white"/>
<rect width="10" height="5" transform="translate(523 7)" fill="white"/>
<rect width="10" height="5" transform="translate(543 7)" fill="white"/>
<rect width="10" height="5" transform="translate(563 7)" fill="white"/>
<rect width="10" height="5" transform="translate(583 7)" fill="white"/>
<rect width="10" height="5" transform="translate(603 7)" fill="white"/>
<rect width="10" height="5" transform="translate(623 7)" fill="white"/>
<rect width="10" height="5" transform="translate(643 7)" fill="white"/>
<rect width="10" height="5" transform="translate(663 7)" fill="white"/>
<rect width="10" height="5" transform="translate(683 7)" fill="white"/>
<rect width="10" height="5" transform="translate(703 7)" fill="white"/>
<rect width="10" height="5" transform="translate(723 7)" fill="white"/>
<circle cx="750.5" cy="9.5" r="9.5" fill="white"/>
<rect width="10" height="5" transform="translate(770 7)" fill="white"/>
<rect width="10" height="5" transform="translate(790 7)" fill="white"/>
<rect width="10" height="5" transform="translate(810 7)" fill="white"/>
<rect width="10" height="5" transform="translate(830 7)" fill="white"/>
<rect width="10" height="5" transform="translate(850 7)" fill="white"/>
<rect width="10" height="5" transform="translate(870 7)" fill="white"/>
<rect width="10" height="5" transform="translate(890 7)" fill="white"/>
<rect width="10" height="5" transform="translate(910 7)" fill="white"/>
<rect width="10" height="5" transform="translate(930 7)" fill="white"/>
<rect width="10" height="5" transform="translate(950 7)" fill="white"/>
<rect width="10" height="5" transform="translate(970 7)" fill="white"/>
<circle cx="997.5" cy="9.5" r="9.5" fill="white"/>
<rect width="10" height="5" transform="translate(1017 7)" fill="white"/>
<rect width="10" height="5" transform="translate(1037 7)" fill="white"/>
<rect width="10" height="5" transform="translate(1057 7)" fill="white"/>
<rect width="10" height="5" transform="translate(1077 7)" fill="white"/>
<rect width="10" height="5" transform="translate(1097 7)" fill="white"/>
<rect width="10" height="5" transform="translate(1117 7)" fill="white"/>
<rect width="10" height="5" transform="translate(1137 7)" fill="white"/>
<rect width="10" height="5" transform="translate(1157 7)" fill="white"/>
<rect width="10" height="5" transform="translate(1177 7)" fill="white"/>
<rect width="10" height="5" transform="translate(1197 7)" fill="white"/>
<rect width="10" height="5" transform="translate(1217 7)" fill="white"/>
</svg>
