<svg xmlns="http://www.w3.org/2000/svg" width="66" height="74" viewBox="0 0 66 74">
    <g fill="none" fill-rule="evenodd">
        <path fill="#0E65E0" d="M32.655 28.461h1.279V15.944a.64.64 0 0 0-1.279 0V28.46zM25.588 33.085l.64-1.108-10.841-6.258a.64.64 0 0 0-.64 1.107l10.841 6.259zM40.118 32.4l.64 1.107 10.84-6.259a.64.64 0 0 0-.64-1.107L40.119 32.4z"/>
        <path fill="#049BF2" d="M40.327 7.063c0 3.9-3.149 7.062-7.032 7.062-3.884 0-7.032-3.162-7.032-7.062 0-3.9 3.148-7.063 7.032-7.063 3.883 0 7.032 3.162 7.032 7.063M11.344 15.714c3.364 1.95 4.515 6.27 2.574 9.647-1.942 3.378-6.242 4.536-9.606 2.586-3.363-1.95-4.515-6.27-2.573-9.648 1.941-3.378 6.242-4.535 9.605-2.585M62.277 27.947c-3.363 1.95-7.664.792-9.606-2.585-1.941-3.378-.79-7.698 2.574-9.648 3.364-1.95 7.664-.793 9.606 2.585 1.942 3.377.79 7.697-2.574 9.648"/>
        <path fill="#0E65E0" d="M33.919 45.48h-1.278v12.518a.64.64 0 0 0 1.279 0l-.001-12.518zM40.986 40.857l-.639 1.107 10.84 6.259a.64.64 0 0 0 .64-1.107l-10.84-6.26zM26.456 41.542l-.64-1.107-10.84 6.258a.64.64 0 0 0 .64 1.107l10.84-6.258z"/>
        <path fill="#049BF2" d="M33.28 59.816c3.883 0 7.032 3.162 7.032 7.063 0 3.9-3.149 7.063-7.032 7.063-3.884 0-7.032-3.163-7.032-7.063s3.148-7.063 7.032-7.063zM52.656 48.58c1.942-3.378 6.243-4.535 9.606-2.585 3.364 1.95 4.516 6.27 2.574 9.648-1.942 3.377-6.242 4.535-9.606 2.585-3.363-1.95-4.515-6.27-2.574-9.648zM13.903 48.58c1.942 3.378.79 7.697-2.574 9.648-3.363 1.95-7.664.792-9.605-2.586-1.942-3.377-.79-7.697 2.574-9.647 3.363-1.95 7.663-.793 9.605 2.585z"/>
        <path fill="#0E65E0" d="M41.733 36.598c0 4.68-3.778 8.475-8.438 8.475s-8.438-3.795-8.438-8.475 3.778-8.475 8.438-8.475 8.438 3.794 8.438 8.475"/>
        <path stroke="#0E65E0" strokeWidth="1.28" d="M41.733 36.598c0 4.68-3.778 8.475-8.438 8.475s-8.438-3.795-8.438-8.475 3.778-8.475 8.438-8.475 8.438 3.794 8.438 8.475z"/>
    </g>
</svg>
