<svg xmlns="http://www.w3.org/2000/svg" width="78" height="55" viewBox="0 0 78 55">
    <g fill="none" fill-rule="evenodd">
        <path fill="#049BF2" d="M51.202 39.951a8.09 8.09 0 0 1-7.213-4.433 8.017 8.017 0 0 1-.88-3.66 8.02 8.02 0 0 1 1.429-4.574 8.066 8.066 0 0 1 6.664-3.518 8.066 8.066 0 0 1 6.664 3.518 8.012 8.012 0 0 1 1.429 4.574c0 .121 0 .233-.007.352-.184 4.3-3.744 7.741-8.086 7.741zm-15.51-12.667c-1.681-3.335-5.136-5.63-9.12-5.63-3.982 0-7.438 2.295-9.12 5.63h-1.787c-.773 0-1.407.634-1.407 1.407v2.112c0 .774.634 1.407 1.407 1.407h.71c.184 5.468 4.687 9.853 10.197 9.853 4.912 0 9.023-3.484 9.987-8.108l.02-.09c.71-3.139 3.905-3.139 4.616 0l.022.09c.964 4.624 5.073 8.108 9.985 8.108 5.51 0 10.014-4.385 10.196-9.853h.71c.776 0 1.409-.633 1.409-1.407v-2.112c0-.773-.633-1.407-1.408-1.407h-1.787c-1.681-3.335-5.137-5.63-9.12-5.63-3.983 0-7.438 2.295-9.12 5.63h-6.39zm-9.12 12.667c-4.342 0-7.902-3.44-8.085-7.74-.008-.12-.008-.232-.008-.353 0-1.696.529-3.272 1.43-4.574a8.063 8.063 0 0 1 6.663-3.518 8.065 8.065 0 0 1 6.664 3.518 8.004 8.004 0 0 1 1.429 4.574 7.991 7.991 0 0 1-.88 3.66 8.09 8.09 0 0 1-7.213 4.433z"/>
        <path fill="#0E65E0" d="M38.857 49.903c-5.454 8.333-17.768 4.834-18.208-.552 4.134 1.584 5.003-.508 6.275-1.613 4.046-3.518 7.183-2.664 7.183-2.664s-2.375-5.223.528-2.232c2.903 2.99 4.222 2.111 4.222 2.111s1.32.88 4.222-2.111c2.903-2.99.528 2.232.528 2.232s3.137-.854 7.183 2.664c1.272 1.105 2.141 3.197 6.275 1.613-.44 5.386-12.754 8.885-18.208.552zM77.139 8.87c-5.278-1.76-9.852.645-9.852.645s6.333 2.522 8.678 8.855c0 0-5.688-1.906-9.851.821 5.835 2.346 4.85 10.086 4.85 10.086s-3.912-5.453-10.363-5.453c0 0 1.967-6.838 0-11.78C57.498 4.246 47.165 2.77 47.165 2.77s12.667-8.679 29.974 6.1zM.861 8.87c5.278-1.76 9.852.645 9.852.645S4.38 12.037 2.035 18.37c0 0 5.688-1.906 9.851.821-5.835 2.346-4.85 10.086-4.85 10.086s3.912-5.453 10.363-5.453c0 0-1.967-6.838 0-11.78C20.502 4.246 30.835 2.77 30.835 2.77S18.168-5.91.861 8.87zM49.001 30.054a1 1 0 1 0 1.473-.935 2.815 2.815 0 1 1-1.472.935zM24.103 30.442a1 1 0 1 0 1.491-1.246 2.815 2.815 0 1 1-1.491 1.246z"/>
    </g>
</svg>
