<svg xmlns="http://www.w3.org/2000/svg" width="71" height="77" viewBox="0 0 71 77">
    <g fill="none" fill-rule="evenodd">
        <path fill="#0E65E0" d="M38 68H13a3 3 0 0 1-3-3V4a3 3 0 0 1 3-3h42.924a3 3 0 0 1 3 3v35.665H57V5a2 2 0 0 0-2-2H14a2 2 0 0 0-2 2v59a2 2 0 0 0 2 2h24v2z"/>
        <path fill="#049BF2" d="M14 64.245h41V9H14z"/>
        <path fill="#FFF" d="M36.15 5.831h-3.805"/>
        <path fill="#0E65E0" d="M33 7h2V5h-2z"/>
        <path fill="#FFF" d="M8.21 36.372l.035-.075 10.132.153c.004.071.013.14.01.213l-.026 1.686a5.06 5.06 0 0 1-5.142 4.978l-1.11-.035-1.567 4.704c3.182 2.347 5.334 6.828 5.334 11.971 0 3.95-1.27 7.51-3.3 10.013H3.723V46.526L8.21 36.372zM19 22h9.003v-8.02H19V22zm-2 2h13V11.927H17V24zM17 31h23v-2H17zM22 37h18v-2H22zM22 42h18v-2H22z"/>
        <path fill="#FFF" d="M66.078 76.86v-4.123a8.517 8.517 0 0 0 3.436-6.838V51.07l-.16-3.275a3.177 3.177 0 0 0-3.177-3.178C64.422 44.618 63 45.246 63 47v-.793a3.176 3.176 0 1 0-6.354 0v-1.59a3.177 3.177 0 0 0-6.355 0v1.788c0-4.302-.028-18.304-.028-18.304a3.29 3.29 0 0 0-3.289-3.287 3.288 3.288 0 0 0-3.285 3.287l-.018 32.114-.066-1.564v-6.565a4.85 4.85 0 0 0-4.854-4.854h-1.616c-.07 0 .066.005 0 .01v6.075c.008 0-.013.004 0 .005v8.06l9.2 10.937s2.385 1.512 3.853 1.87v2.671"/>
        <path stroke="#0E65E0" strokeWidth="2" d="M66.078 76.86v-4.123a8.517 8.517 0 0 0 3.436-6.838V51.07l-.16-3.275a3.177 3.177 0 0 0-3.177-3.178C64.422 44.618 63 45.246 63 47v-.793a3.176 3.176 0 1 0-6.354 0v-1.59a3.177 3.177 0 0 0-6.355 0v1.788c0-4.302-.028-18.304-.028-18.304a3.29 3.29 0 0 0-3.289-3.287 3.288 3.288 0 0 0-3.285 3.287l-.018 32.114-.066-1.564v-6.565a4.85 4.85 0 0 0-4.854-4.854h-1.616c-.07 0 .066.005 0 .01v6.075c.008 0-.013.004 0 .005v8.06l9.2 10.937s2.385 1.512 3.853 1.87v2.671"/>
        <path fill="#FFF" d="M7.783 36.323l.038-.08 10.803.163c.003.076.013.149.01.227l-.028 1.797a5.396 5.396 0 0 1-5.482 5.308l-1.184-.037-1.67 5.015c3.393 2.502 5.687 7.28 5.687 12.763 0 4.211-1.354 8.006-3.519 10.675H3V47.15l4.783-10.826z"/>
        <path stroke="#0E65E0" strokeWidth="2" d="M7.783 36.323l.038-.08 10.803.163c.003.076.013.149.01.227l-.028 1.797a5.396 5.396 0 0 1-5.482 5.308l-1.184-.037-1.67 5.015c3.393 2.502 5.687 7.28 5.687 12.763 0 4.211-1.354 8.006-3.519 10.675H3V47.15l4.783-10.826z"/>
        <path fill="#049BF2" d="M23.587 76.02V68H0v8.02"/>
    </g>
</svg>
