<svg width="58" height="98" viewBox="0 0 58 98" fill="none" xmlns="http://www.w3.org/2000/svg">
<path d="M25.4587 0.659346C25.923 0.360243 26.5419 0.494145 26.841 0.958425C27.1401 1.4227 27.0062 2.04155 26.5419 2.34065L25.4587 0.659346ZM57.0495 87.6643C57.5111 87.9676 57.6394 88.5876 57.3361 89.0492L52.3935 96.5705C52.0902 97.0321 51.4701 97.1604 51.0086 96.8571C50.547 96.5537 50.4187 95.9337 50.7221 95.4722L55.1155 88.7865L48.4298 84.3931C47.9683 84.0898 47.84 83.4698 48.1433 83.0082C48.4466 82.5467 49.0666 82.4184 49.5282 82.7217L57.0495 87.6643ZM26.5419 2.34065C13.7153 10.604 6.57339 20.6033 3.67286 30.7666C0.770009 40.938 2.08955 51.3629 6.34463 60.5159C14.8758 78.8672 35.0875 91.9091 56.2977 87.5207L56.703 89.4793C34.4132 94.0909 13.3749 80.3828 4.53103 61.3591C0.0985963 51.8246 -1.30063 40.9057 1.74965 30.2178C4.80223 19.5217 12.2854 9.14604 25.4587 0.659346L26.5419 2.34065Z" fill="#1597F9"/>
</svg>
