<svg width="370" height="123" viewBox="0 0 370 123" fill="none" xmlns="http://www.w3.org/2000/svg">
    <g clip-path="url(#zm4rbyf6za)" fill-rule="evenodd" clip-rule="evenodd">
        <path d="M254.7 111.146a345.182 345.182 0 0 1-3.795 5.916l-.271-.132a94.95 94.95 0 0 1 3.104-7.587c-2.225-4.3-4.526-9.695-6.373-15.785-2.421-7.758-4.1-16.536-4.599-24.77-.463-8.224.24-15.856 1.76-21.109 3.032-10.536 9.337-18.93 16.03-23.325 3.285-2.253 6.774-3.495 9.978-3.81 3.21-.312 6.182.33 8.802 1.887 5.288 3.18 8.041 9.105 9.229 15.762.367 2.181.493 4.464.505 6.786 7.704-8.412 15.974-15.234 22.865-18.786 13.85-7.629 28.915-9.816 39.627-7.878 2.701.507 5.095 1.065 7.219 1.968 2.139.942 3.95 2.007 5.418 3.177 2.942 2.34 4.491 5.091 4.672 8.127.18 3.04-.984 6.081-2.957 8.946a27.905 27.905 0 0 1-3.535 4.137c-1.354 1.353-2.852 2.862-4.491 4.176-6.57 5.41-15.017 10.692-24.808 16.065-1.34.74-2.712 1.42-4.113 2.037-1.474.756-3.05 1.587-4.765 2.382-.863.4-1.747.804-2.653 1.218-.631.333-1.281.672-1.931 1.014 9.407-1.5 18.35-.18 24.838 3.04 7.097 3.467 11.155 9.137 11.091 15.152-.057 6.15-3.648 11.535-8.859 15.942-5.258 4.38-12.279 7.71-20.419 9.426-8.101 1.635-23.476 1.035-37.298 2.17-6.868.521-13.477 1.23-18.374 2.057-4.951.738-8.378 1.335-9.015.588-.954.187-3.76-3.13-6.882-8.791zm0 0c2.583-4.099 5.114-8.197 7.813-12.189 3.929-5.946 7.731-11.979 12.081-17.64 8.727-11.247 19.006-21.477 31.24-29.067l-.154-.258c-12.721 6.861-23.686 16.731-32.963 27.822-4.666 5.535-9.103 11.307-12.761 17.562-2.23 3.91-4.348 7.882-6.218 11.967.322.624.644 1.226.962 1.803z" fill="#F0E2DE"/>
        <path d="M100.113 22.612c5.667 5.778 10.33 14.84 12.258 25.455 1.988 10.614.21 30.177-4.308 46.578-2.217 8.208-4.96 15.573-7.683 20.724-2.635 5.15 8.399 7.548 3.45 6.813-4.897-.825-25.93-.72-34.71-1.005-13.862-.447-31.24-1.098-39.34-2.733-8.141-1.71-15.162-5.046-20.42-9.426C4.146 104.614.555 99.232.5 93.078.439 87.06 4.497 81.39 11.59 77.923c6.27-3.111 14.831-4.464 23.89-3.201-3.85-2.286-7.205-4.392-9.684-6.27-7.526-5.868-13.386-12.558-16.984-19.27-3.537-6.72-4.846-13.436-2.055-18.923 2.726-5.37 9.284-8.38 17.836-7.986 8.522.336 19.024 4.107 28.373 11.403 4.645 3.522 10.074 9.59 15.173 16.785-.692-7.332-.057-14.181 1.754-19.878 2.274-7.077 6.287-12.477 12.135-14.352 5.772-1.851 12.417.567 18.085 6.38zm-53.285 35.51c4.743 4.256 9.824 8.042 14.5 12.23 4.676 4.188 9.152 8.562 13.27 13.263 4.158 4.67 7.912 9.68 11.549 14.793l2.674 3.882 2.5 4.005c1.815 2.595 3.225 5.415 4.99 8.076-2.244-5.934-4.897-11.75-8.215-17.208-3.239-5.505-7.029-10.698-11.24-15.53-4.279-4.77-8.945-9.214-14.064-13.054-2.57-1.9-5.16-3.762-7.83-5.49l-8.135-4.968h.001z" fill="#DDECEA"/>
        <path d="M267.769 111H96.305V9c0-4.969 4.04-9 9.024-9h153.416c4.983 0 9.024 4.031 9.024 9v102z" fill="#CBD3D7"/>
        <path d="M106.836 112.493h150.408V10.496H106.836v101.997z" fill="#FEFEFE"/>
        <path d="M115.875 100.121h78.212v-60h-78.212v60zm86.93-54h45.119v-6h-45.119v6zm0 9h45.119v-6h-45.119v6zm0 9h45.119v-6h-45.119v6zm0 18h45.119v-6h-45.119v6zm0 9h45.119v-6h-45.119v6zm0 9h45.119v-6h-45.119v6z" fill="#BEDDF3"/>
        <path d="M106.836 28.217h150.408v-17.72H106.836v17.72z" fill="#E5F4FC"/>
        <path d="M281.308 112.496v4.5l-4.513 3H87.282l-4.513-3v-4.5c0-.84.662-1.5 1.505-1.5h195.529c.843 0 1.505.66 1.505 1.5z" fill="#E7EAEB"/>
        <path d="m281.308 116.996-9.025 6H91.794l-9.025-6h198.539z" fill="#CBD3D7"/>
        <path d="M167.014 70.121c0 6.627-5.387 12-12.032 12-6.645 0-12.033-5.373-12.033-12s5.388-12 12.033-12 12.032 5.373 12.032 12z" fill="#72BAE6"/>
        <path d="m160.481 70.121-9.118-5.25v10.5l9.118-5.25z" fill="#FEFEFE"/>
    </g>
    <defs>
        <clipPath id="zm4rbyf6za">
            <path fill="#fff" transform="translate(.5)" d="M0 0h369v123H0z"/>
        </clipPath>
    </defs>
</svg>
