<svg xmlns="http://www.w3.org/2000/svg" width="37" height="43" viewBox="0 0 37 43">
    <g fill="#11AA58" fill-rule="evenodd">
        <path d="M34.826 35.337c0 .583-.47 1.064-1.044 1.064h-1.775V7.876c-.004-1.762-1.397-3.189-3.118-3.193H6.972V3.406c.004-.583.47-1.064 1.043-1.064h25.772c.569 0 1.039.48 1.039 1.068v31.927zm-4.897 4.47c0 .583-.47 1.064-1.044 1.064H3.118c-.574 0-1.04-.48-1.04-1.068V7.876c0-.583.466-1.064 1.04-1.064h25.771c.57 0 1.04.481 1.04 1.069V39.807zM33.787.213H8.01C6.29.217 4.897 1.643 4.893 3.406v1.277H3.118C1.397 4.687 0 6.113 0 7.876v31.931C0 41.57 1.397 42.996 3.118 43h25.771c1.721-.004 3.114-1.43 3.118-3.193V38.53h1.78c1.72-.005 3.113-1.43 3.118-3.193V3.406C36.9 1.643 35.508.217 33.787.213z"/>
        <path d="M14.27 22.799c-.276 0-.542-.113-.737-.314l-3.58-3.692a1.082 1.082 0 0 1 .005-1.505 1.022 1.022 0 0 1 1.47.005l2.842 2.931 7.14-7.362a1.022 1.022 0 0 1 1.469-.005c.407.415.41 1.089.005 1.506l-7.877 8.122c-.194.2-.46.314-.737.314M25.289 30.228H6.58c-.574 0-1.04-.477-1.04-1.065s.466-1.064 1.04-1.064h18.708c.574 0 1.04.476 1.04 1.064 0 .588-.466 1.065-1.04 1.065M25.289 35.762H6.58c-.574 0-1.04-.476-1.04-1.064 0-.588.466-1.064 1.04-1.064h18.708c.574 0 1.04.476 1.04 1.064 0 .588-.466 1.064-1.04 1.064"/>
    </g>
</svg>
