<svg xmlns="http://www.w3.org/2000/svg" width="40" height="32" viewBox="0 0 40 32">
    <g fill="#5863F8" fill-rule="evenodd">
        <path d="M35.385 11.268L19.83 2.945 4.103 11.268 19.83 19.59l15.556-8.323zm-25.46 12.6l9.903 4.912 9.905-4.912v-6.57l-9.283 4.913a1.33 1.33 0 0 1-1.243 0l-9.283-4.913v6.57zm9.904 7.632c-.184 0-.362-.037-.53-.11L8.077 25.906a1.3 1.3 0 0 1-.786-1.19v-8.811L.695 12.413A1.295 1.295 0 0 1 0 11.268c0-.48.266-.92.694-1.146L19.207.324a1.332 1.332 0 0 1 1.243 0l18.512 9.798c.429.227.696.666.696 1.146v4.984c0 .717-.591 1.3-1.317 1.3a1.31 1.31 0 0 1-1.317-1.3V13.44l-4.658 2.466v8.81a1.3 1.3 0 0 1-.787 1.191L20.36 31.39c-.168.073-.346.11-.53.11z"/>
        <path d="M19.829 9.767c-.402 0-.791.16-1.074.44a1.5 1.5 0 0 0-.445 1.062c0 .394.162.781.445 1.06.283.28.672.44 1.074.44.399 0 .79-.16 1.073-.44.283-.28.445-.666.445-1.06 0-.396-.162-.782-.445-1.062a1.54 1.54 0 0 0-1.073-.44"/>
    </g>
</svg>
