<svg xmlns="http://www.w3.org/2000/svg" width="29" height="51" viewBox="0 0 29 51">
    <g fill="#F45D01" fill-rule="evenodd">
        <path d="M22.392 32.635a7.807 7.807 0 0 0-2.732 4.872l-.025.17h-4.207v-9.75c0-.549-.452-.995-1.007-.995-.555 0-1.007.446-1.007.996v9.75h-4.21l-.026-.17a7.787 7.787 0 0 0-2.728-4.87c-2.928-2.43-4.542-5.993-4.43-9.774.195-6.581 5.564-11.808 12.223-11.9l.184-.002a12.39 12.39 0 0 1 8.702 3.534c2.383 2.325 3.696 5.428 3.696 8.738 0 3.634-1.616 7.06-4.433 9.4M14.42 48.829c-1.467 0-2.76-.958-3.3-2.412h6.6c-.539 1.454-1.832 2.412-3.3 2.412m-5.155-5.314v-3.845h10.31v3.845c0 .41-.278.755-.658.867l-.35.043h-8.295l-.35-.043a.909.909 0 0 1-.657-.867m15.28-30.436c-2.715-2.649-6.315-4.108-10.135-4.108l-.195.002a14.423 14.423 0 0 0-9.9 4.108C1.647 15.678.117 19.132.007 22.806c-.13 4.393 1.747 8.534 5.15 11.359a5.83 5.83 0 0 1 2.094 4.508v4.84c0 1.169.703 2.176 1.712 2.635.035.18.076.36.127.537.721 2.473 2.863 4.135 5.33 4.135s4.609-1.662 5.33-4.134c.051-.177.092-.357.127-.537a2.902 2.902 0 0 0 1.712-2.635v-4.841c0-1.76.766-3.405 2.1-4.513 3.273-2.72 5.15-6.702 5.15-10.926 0-3.847-1.525-7.454-4.295-10.156"/>
        <path d="M9.167 21.878a1.201 1.201 0 0 0-1.208 1.195c0 .315.13.623.354.846.225.222.537.35.854.35a1.198 1.198 0 0 0 1.208-1.195 1.201 1.201 0 0 0-1.208-1.196M14.404 21.878c-.318 0-.629.127-.854.35-.225.222-.354.53-.354.846 0 .314.13.621.354.845.225.222.536.35.854.35a1.2 1.2 0 0 0 1.208-1.195 1.197 1.197 0 0 0-1.208-1.196M19.641 21.877a1.198 1.198 0 0 0-1.208 1.197c0 .314.129.622.354.845.225.222.535.35.854.35a1.2 1.2 0 0 0 1.208-1.195 1.2 1.2 0 0 0-1.208-1.197M14.42 5.977a1.202 1.202 0 0 1-1.21-1.196V1.195c0-.66.542-1.195 1.21-1.195.666 0 1.207.535 1.207 1.195v3.586c0 .66-.54 1.196-1.208 1.196M3.828 8.785a1.216 1.216 0 0 1-1.651-.438L1.17 6.623a1.188 1.188 0 0 1 .442-1.633 1.215 1.215 0 0 1 1.65.438L4.27 7.152a1.188 1.188 0 0 1-.442 1.633M25.01 8.783a1.188 1.188 0 0 1-.441-1.633l1.006-1.724a1.215 1.215 0 0 1 1.65-.438c.579.33.777 1.061.443 1.633l-1.006 1.725a1.216 1.216 0 0 1-1.651.437"/>
    </g>
</svg>
