<svg xmlns="http://www.w3.org/2000/svg" width="46" height="46" viewBox="0 0 46 46">
    <g fill="#049BF2" fill-rule="evenodd">
        <path d="M42.85 23.945h-4.961l-.434 1.983a14.973 14.973 0 0 1-2.034 4.906l-1.096 1.709 1.435 1.434 2.075 2.074v.001l-1.782 1.781-.001.001-2.074-2.074-1.435-1.435-1.708 1.095a14.965 14.965 0 0 1-4.906 2.035l-1.984.434v4.96h-2.52v-4.96l-1.984-.434a14.96 14.96 0 0 1-4.906-2.034l-1.709-1.096-1.434 1.435-2.074 2.075-1.782-1.782v-.001l2.074-2.074 1.434-1.435-1.095-1.708a14.965 14.965 0 0 1-2.034-4.906l-.434-1.984h-4.96v-2.52h4.96l.434-1.984a14.973 14.973 0 0 1 2.034-4.906l1.095-1.709-1.434-1.434-2.075-2.074 1.782-1.782 2.075 2.074 1.434 1.434 1.709-1.095a14.96 14.96 0 0 1 4.906-2.034l1.984-.434v-4.96h2.52v4.96l1.983.434a14.973 14.973 0 0 1 4.906 2.034l1.709 1.095 1.434-1.434 2.074-2.075h.001l1.781 1.782h.001l-2.074 2.075-1.435 1.434 1.095 1.709a14.96 14.96 0 0 1 2.035 4.906l.434 1.984h4.96v2.52zm2.52-2.52c0-1.392-1.003-2.52-2.24-2.52h-3.212a17.532 17.532 0 0 0-2.376-5.73l2.273-2.273c.875-.875.785-2.382-.199-3.367l-1.782-1.782c-.53-.53-1.212-.8-1.865-.8-.56 0-1.098.198-1.502.602l-2.272 2.273a17.532 17.532 0 0 0-5.73-2.377v-3.21c0-1.238-1.128-2.241-2.52-2.241h-2.52c-1.392 0-2.52 1.003-2.52 2.24v3.212a17.532 17.532 0 0 0-5.73 2.376l-2.273-2.273A2.097 2.097 0 0 0 9.4 4.953c-.652 0-1.334.27-1.865.8L5.753 7.537c-.984.985-1.073 2.491-.198 3.367l2.273 2.272a17.532 17.532 0 0 0-2.377 5.73h-3.21C1.002 18.905 0 20.033 0 21.425v2.52c0 1.392 1.003 2.52 2.24 2.52h3.212a17.532 17.532 0 0 0 2.376 5.73l-2.273 2.273c-.875.875-.785 2.382.199 3.367l1.782 1.782c.53.53 1.212.8 1.865.8.56 0 1.098-.198 1.502-.602l2.272-2.273a17.532 17.532 0 0 0 5.73 2.377v3.21c0 1.238 1.128 2.241 2.52 2.241h2.52c1.393 0 2.521-1.003 2.521-2.24v-3.211a17.532 17.532 0 0 0 5.73-2.377l2.272 2.273c.404.404.943.603 1.502.603.653 0 1.335-.271 1.865-.801l1.782-1.782c.985-.985 1.073-2.492.199-3.367l-2.273-2.272a17.532 17.532 0 0 0 2.376-5.73h3.211c1.238 0 2.241-1.129 2.241-2.52v-2.521h-.001z"/>
        <path d="M22.7 31.003c-4.587 0-8.318-3.731-8.318-8.318s3.73-8.318 8.318-8.318c4.586 0 8.317 3.731 8.317 8.318s-3.731 8.318-8.317 8.318m0-19.408c-6.126 0-11.091 4.964-11.091 11.09 0 6.126 4.965 11.09 11.09 11.09 6.126 0 11.091-4.964 11.091-11.09 0-6.126-4.965-11.09-11.09-11.09"/>
        <path d="M26.11 22.14l-4.643-2.68a.63.63 0 0 0-.945.545v5.36a.63.63 0 0 0 .945.546l4.642-2.68a.63.63 0 0 0 0-1.092"/>
    </g>
</svg>
